Input #0, mov,mp4,m4a,3gp,3g2,mj2, from '/home/hbattu/projects/huberman-gpt/huberman-audio/mp3/tmp7gil2czf.mp4':
  Metadata:
    major_brand     : dash
    minor_version   : 0
    compatible_brands: iso6mp41
    creation_time   : 2021-01-31T08:01:50.000000Z
  Duration: 01:50:55.28, start: 0.000000, bitrate: 129 kb/s
    Stream #0:0(eng): Audio: aac (LC) (mp4a / 0x6134706D), 44100 Hz, stereo, fltp, 0 kb/s (default)
    Metadata:
      creation_time   : 2021-01-31T08:01:50.000000Z
      handler_name    : ISO Media file produced by Google Inc.
Stream mapping:
  Stream #0:0 -> #0:0 (aac (native) -> mp3 (libmp3lame))
Press [q] to stop, [?] for help
[graph_0_in_0_0 @ 0x55c95041ed80] tb:1/44100 samplefmt:fltp samplerate:44100 chlayout:0x3
Output #0, mp3, to '../huberman-audio/mp3/NAATB55oxeQ.mp3':
  Metadata:
    major_brand     : dash
    minor_version   : 0
    compatible_brands: iso6mp41
    TSSE            : Lavf58.29.100
    Stream #0:0(eng): Audio: mp3 (libmp3lame), 44100 Hz, stereo, fltp, delay 1105 (default)
    Metadata:
      creation_time   : 2021-01-31T08:01:50.000000Z
      handler_name    : ISO Media file produced by Google Inc.
      encoder         : Lavc58.54.100 libmp3lame
No more output streams to write to, finishing.
size=  103990kB time=01:50:55.29 bitrate= 128.0kbits/s speed=82.9x    
[AVIOContext @ 0x55c950310900] Statistics: 0 seeks, 161 writeouts
video:0kB audio:103989kB subtitle:0kB other streams:0kB global headers:0kB muxing overhead: 0.000325%
Input file #0 (/home/hbattu/projects/huberman-gpt/huberman-audio/mp3/tmp7gil2czf.mp4):
  Input stream #0:0 (audio): 286619 packets read (106484482 bytes); 286619 frames decoded (293497856 samples); 
  Total: 286619 packets (106484482 bytes) demuxed
Output file #0 (../huberman-audio/mp3/NAATB55oxeQ.mp3):
  Output stream #0:0 (audio): 254773 frames encoded (293497856 samples); 254774 packets muxed (106485133 bytes); 
  Total: 254774 packets (106485133 bytes) muxed
[AVIOContext @ 0x55c95033a140] Statistics: 2 seeks, 408 writeouts
[AVIOContext @ 0x55c950319880] Statistics: 107708994 bytes read, 0 seeks
